<svg id="Groupe_711" data-name="Groupe 711" xmlns="http://www.w3.org/2000/svg" width="324.696" height="386.957" viewBox="0 0 324.696 386.957">
  <g id="Groupe_231" data-name="Groupe 231" transform="translate(25.787 72.532)">
    <circle id="Ellipse_16" data-name="Ellipse 16" cx="149.455" cy="149.455" r="149.455" transform="translate(0)" fill="#fdecd2"/>
  </g>
  <g id="Groupe_232" data-name="Groupe 232" transform="translate(4.888 300.311)">
    <path id="Tracé_656" data-name="Tracé 656" d="M-2570.53,2522.808c.932-6.966,1.35-13.979,1.934-20.972.044-.135,1.182-7.6,1.238-7.722-3.907,1.832-8.38,5.321-12.283,7.16-3.814,1.8-5.427,3.056-7.393.86-2.429-2.713,4.935-12.609,6.346-15.38,2.084-4.091-2-10.588-4.195-14.949-1.3-2.58-3.839-3.57-1.721-5.916,1.883-2.084.921-3.009,4.189-1.49,4.362,2.025,11.278,6.321,15.632,8.365-.053-.119-1.206-6.064-1.249-6.2-1.042-7.085-.945-14.266-1.9-21.356a3.819,3.819,0,0,1,.727-3.251h0c-.476-.035-.951-.1-1.428-.1-25.807.209-45.443,26.161-39.058,51.612,4.64,18.5,21.6,32.179,39.456,31.838h0A3.791,3.791,0,0,1-2570.53,2522.808Z" transform="translate(2610.908 -2441.861)" fill="#ffb127"/>
  </g>
  <g id="Groupe_233" data-name="Groupe 233" transform="translate(41.515 300.45)">
    <path id="Tracé_657" data-name="Tracé 657" d="M-2513.343,2474.09c-4.637-19.041-22.338-32.976-40.6-31.966a3.813,3.813,0,0,0-.725,3.243c.956,7.073,1.874,24.107,1.874,24.107,7.106,3.476,12.612,6.246,19.765,9.62,2.815,1.328,3.927,1.056,3.977,4.329.052,3.4-.558,3.589-3.48,4.97-7.32,3.462-21.131,10.255-21.174,10.388-.584,6.979-.626,17.056-1.556,24.006a3.78,3.78,0,0,0,.291,2.5h0C-2528.3,2526.706-2506.928,2500.427-2513.343,2474.09Z" transform="translate(2555.341 -2442.072)" fill="#ffd07d"/>
  </g>
  <g id="Groupe_234" data-name="Groupe 234" transform="translate(11.935 162.174)">
    <path id="Tracé_658" data-name="Tracé 658" d="M-2518.99,2255.414c.109-4-1.742-3.35-3.026-3.33-8.786.138-17.011-.109-25.8-.012-18.161.2-29.336,14.036-30.611,32.5-1.191,17.229,8.665,27.932,26.057,30.634,1.942.3,51.575,1.524,74.919,1.529.974,0,2.068-.263,3.041-.229.419.37.667,3.411.676,3.941.081,4.606.913,9.172.67,13.795-.1,1.81-.776,2.614-2.787,2.609q-36.833-.1-73.668-.042a3.343,3.343,0,0,1-1.308-.174c-21.651-.234-42.406-17.232-47.8-39.151a52.332,52.332,0,0,1,43.547-64.733c1.4-.206,2.829-.164,4.244-.238a7.925,7.925,0,0,1,2.637-.165c16.041-.009,32.082.035,48.123-.053,2.221-.013,3.637.617,4.707,2.587a119.371,119.371,0,0,1,5.727,12.28c.965,2.39,1.355,4.913-1.184,4.975-3.535.086-7.819-.007-11.348.414-2.683.215-2.688-.323-2.9,2.364C-2508.423,2255.345-2518.356,2255-2518.99,2255.414Z" transform="translate(2600.216 -2232.292)" fill="#fff"/>
  </g>
  <g id="Groupe_235" data-name="Groupe 235" transform="translate(61.873 246.438)">
    <path id="Tracé_659" data-name="Tracé 659" d="M-2524.455,2379.247c.953-.049,1.9-.143,2.857-.143,23.241-.007,46.481-.035,69.722.042,2.215.009,3.009-.435,2.969-2.841-.08-4.777-1.089-10.857-.748-15.645,11.746.028,24.491-1.2,36.2,0,22.62,2.325,43.431,23.423,46.022,46,3.175,27.666-15.921,52.638-43.073,58.192-1.616.33-34.358,1.585-48.808,1.386-.584-.675-.617-3.331-.407-4.083,1.224-4.4,2.319-8.833,3.448-13.256.176-.687.307-2.447.78-2.959,11.323-.047,33.418-.061,33.67-.067,16.482-.39,28.876-10.221,32.149-26.551,3.846-19.186-8.962-36.424-28.489-37.255-10.785-.459-21.061-1.639-31.865-1.643-23.353-.008-47.2-.851-70.551-.866A10.945,10.945,0,0,1-2524.455,2379.247Z" transform="translate(2524.455 -2360.131)" fill="#fff"/>
  </g>
  <g id="Groupe_236" data-name="Groupe 236" transform="translate(61.314 162.051)">
    <path id="Tracé_660" data-name="Tracé 660" d="M-2463.521,2252.366c-2.335-5.746-5.016-13.87-8.067-18.876-.744-1.222-1.836-.875-2.838-.875q-23.98-.03-47.963-.02c-.972,0-1.944-.1-2.916-.149a10.922,10.922,0,0,1,3.953-.312q49.029.007,98.059,0c2.021,0,31.7.419,31.7,2.586-.006,5.163,12,16.248,11.408,16.249C-2398.66,2250.986-2465.151,2252.366-2463.521,2252.366Z" transform="translate(2525.304 -2232.105)" fill="#f0ecec"/>
  </g>
  <g id="Groupe_237" data-name="Groupe 237" transform="translate(87.941 332.468)">
    <path id="Tracé_661" data-name="Tracé 661" d="M-2439.869,2490.824q-2.294,9.409-4.586,18.817-19.5.067-39.009.153c-1.291.008-1.6-.359-1.377-1.638a45.7,45.7,0,0,0,0-15.859c-.225-1.292.139-1.657,1.412-1.649Q-2461.649,2490.771-2439.869,2490.824Z" transform="translate(2484.908 -2490.648)" fill="#f0ecec"/>
  </g>
  <g id="Groupe_240" data-name="Groupe 240" transform="translate(0 156.19)">
    <g id="Groupe_238" data-name="Groupe 238" transform="translate(1.072 1.071)">
      <path id="Tracé_662" data-name="Tracé 662" d="M-2527.821,2424.185h.034c21.66.07,43.683.058,64.982.051l9.521,0a70.124,70.124,0,0,0,8.621-.467,56.242,56.242,0,0,0,40.621-25.983,56.756,56.756,0,0,0,6.226-48.266c-7.88-23.988-29.533-39.523-55.163-39.577-33.915-.073-68.673-.034-99.34,0h-.036a28.134,28.134,0,0,1-19.222-7.046,27.955,27.955,0,0,1-7.769-30.259,27.682,27.682,0,0,1,25.762-18.42c9.052-.13,136.832-.079,144.573-.011h.079c1.72,0,2.46-.5,2.971-1.328a3.556,3.556,0,0,0-.228-2.543c-.371-.462-1.339-.733-2.8-.787-.348-.012-.7-.012-1.045-.011h-143.4a31.076,31.076,0,0,0-3.674.23c-19.164,2.269-29.64,20.052-28.356,35.229,1.37,16.194,15.373,29.446,31.214,29.542,23.088.137,46.57.079,69.278.021l3.874-.009q3.859,0,7.708.016c6.382.018,12.981.036,19.461-.048a55.707,55.707,0,0,1,20.183,3.419,52.177,52.177,0,0,1,34,47.188c.563,16.092-5.252,29.857-17.285,40.916-9.319,8.565-20.075,13.076-31.97,13.41s-24,.222-35.7.115q-3.361-.031-6.721-.059c-2.516-.072-5.052-.061-7.5-.049q-1.72.007-3.438.008-10.955-.027-21.909,0a4.576,4.576,0,0,1-3.6-1.257,4.263,4.263,0,0,1-.89-3.482,52.373,52.373,0,0,0,.135-6.468c-.016-.817-.033-1.632-.035-2.447-.01-2.392-.015-3.8,1.094-4.87,1.073-1.036,2.428-1.041,4.888-1.049q6.7-.02,13.395,0c7.324.014,14.9.024,22.341-.066,5.775.029,11.616.025,17.264.02q6.676-.006,13.349,0c2.644-.019,5.226-.2,7.623-.43,15.5-1.472,28.224-14.876,28.959-30.517a33.109,33.109,0,0,0-9.081-24.3,31.178,31.178,0,0,0-22.714-9.82h-.014q-16.224.007-32.446.025c-22.008.02-44.767.04-67.151.018-.306-.007-.6.007-.9.015a12.887,12.887,0,0,1-3.774-.3,7.872,7.872,0,0,0-1.184-.153,50.627,50.627,0,0,1-37.588-20.114c-9.4-12.054-12.885-25.723-10.361-40.628,2.853-16.851,12.031-29.644,27.281-38.021a51.5,51.5,0,0,1,22.389-6.132,10.656,10.656,0,0,1,2.6-.191c.181,0,.362.006.541.005,16.751-.037,36.943,0,56.471.041,10.042.02,59.739.04,68.584.047-.047-1.537.022-3.046.109-4.526-26.344-.034-100.985-.022-124.161-.014a68.618,68.618,0,0,0-10.637.719,57.041,57.041,0,0,0-43.521,33.247,56.514,56.514,0,0,0,4.206,54.1c11.312,17.37,27.871,26.229,49.222,26.328,16.168.077,32.613.059,48.515.043q12.208-.011,24.417-.013,3.578,0,7.153-.011c6.922-.017,14.078-.038,21.125.132a25.747,25.747,0,0,1,20.516,10.764c6.792,9.042,7.808,19.1,2.936,29.1-5,10.257-13.918,15.7-25.788,15.728-12.265.034-24.736.038-36.793.033-12.446,0-25.32,0-37.978.035-2.665.034-4.227-1-5.427-3.488-7.47-15.472-19.643-24.066-36.182-25.545q-1.984-.177-3.952-.176a42.885,42.885,0,0,0-31.589,13.786,44.156,44.156,0,0,0-11.173,37.492c2.586,15.736,15.819,33.75,38.761,36.118a43.626,43.626,0,0,0,44.123-25.5C-2532.057,2425.215-2530.5,2424.185-2527.821,2424.185Zm-14.647,11.053a38.382,38.382,0,0,1-29.612,14.286q-.972,0-1.947-.051-.271,0-.54,0c-16.874,0-32.772-12.964-37.147-30.4a39.647,39.647,0,0,1,7.379-34.047,38.3,38.3,0,0,1,29.983-15.271,10.624,10.624,0,0,1,1.095.064l.245.022c17.388-.895,34.436,12.528,38.838,30.6A40,40,0,0,1-2542.468,2435.239Z" transform="translate(2616.698 -2224.84)" fill="#2d2e82"/>
    </g>
    <g id="Groupe_239" data-name="Groupe 239" transform="translate(0 0)">
      <path id="Tracé_663" data-name="Tracé 663" d="M-2573.385,2453.941a44.274,44.274,0,0,1-4.554-.234c-23.459-2.421-36.99-20.845-39.635-36.94a45.134,45.134,0,0,1,11.424-38.325,43.66,43.66,0,0,1,32.313-14.1c1.34,0,2.7.062,4.04.182,16.909,1.511,29.353,10.292,36.984,26.1,1.045,2.164,2.256,2.946,4.524,2.928,10.869-.031,21.887-.033,32.657-.034h5.334c14.365,0,26.054,0,36.79-.033,11.467-.03,20.078-5.277,24.9-15.173,4.7-9.638,3.717-19.344-2.838-28.07a24.789,24.789,0,0,0-19.75-10.37c-6.892-.166-13.9-.146-20.679-.133l-.42,0q-2.783.008-5.567.01l-1.586,0q-12.211.006-24.418.013c-15.855.018-32.25.034-48.521-.042-21.7-.1-38.539-9.11-50.044-26.777a57.5,57.5,0,0,1-4.28-55.041,58.027,58.027,0,0,1,44.272-33.821,69.879,69.879,0,0,1,10.788-.73c22.792-.008,97.6-.021,124.163.014h1.048l-.062,1.045c-.1,1.637-.152,3.017-.108,4.438l.033,1.021-16.69-.01c-18.3-.01-45.739-.024-52.918-.039-17.421-.035-39.1-.081-56.466-.04-.18.006-.372,0-.56-.006a9.6,9.6,0,0,0-2.361.166l-.167.024a50.519,50.519,0,0,0-21.969,6.011c-14.972,8.226-23.983,20.781-26.783,37.32-2.475,14.621.945,28.03,10.166,39.855a49.676,49.676,0,0,0,36.881,19.737,8.76,8.76,0,0,1,1.341.176,12.158,12.158,0,0,0,3.52.273l.2-.005c.249-.008.5-.015.749-.01,23.055.024,46.47,0,67.128-.017q16.224-.016,32.447-.026a32.165,32.165,0,0,1,23.444,10.127,34.1,34.1,0,0,1,9.354,25.033c-.759,16.121-13.87,29.937-29.852,31.455-2.951.28-5.4.418-7.71.434q-6.688-.019-13.355,0c-5.323,0-11.355.01-17.271-.02-7.651.093-15.453.08-22.338.066q-6.689-.011-13.39,0c-2.43.008-3.447.04-4.2.772-.774.747-.8,1.753-.792,4.155,0,.809.019,1.619.035,2.429a53.17,53.17,0,0,1-.14,6.592,3.309,3.309,0,0,0,.64,2.717,3.644,3.644,0,0,0,2.865.931q10.949-.015,21.908,0,1.573,0,3.145-.007h.287c2.331-.01,4.973-.024,7.537.05,2.218.016,4.457.037,6.7.057,11.681.108,23.753.219,35.666-.114,11.649-.327,22.19-4.751,31.328-13.15,11.811-10.854,17.52-24.364,16.966-40.153a51.189,51.189,0,0,0-33.362-46.3,54.683,54.683,0,0,0-19.826-3.357c-6.567.086-13.424.066-19.475.048l-.64,0q-3.53-.01-7.066-.014l-3.87.01c-22.712.057-46.195.115-69.287-.022-16.339-.1-30.781-13.757-32.193-30.448-1.323-15.635,9.474-33.955,29.224-36.293a31.849,31.849,0,0,1,3.791-.238h143.4c.359,0,.72,0,1.082.012,1.8.066,2.959.444,3.531,1.155.531.659.674,1.741.435,3.312l-.03.2-.106.173c-.77,1.241-1.945,1.8-3.812,1.8h-.087c-7.718-.067-135.479-.12-144.55.012a26.7,26.7,0,0,0-24.847,17.768,26.959,26.959,0,0,0,7.495,29.18,27.172,27.172,0,0,0,18.567,6.8h.6c30.5-.033,65.068-.071,98.777,0,26.064.055,48.084,15.856,56.1,40.257a57.74,57.74,0,0,1-6.33,49.1,57.23,57.23,0,0,1-41.335,26.435,71.109,71.109,0,0,1-8.741.474l-11.807,0c-20.555.009-41.812.016-62.7-.051l-.031-.989v.989c-2.282,0-3.5.8-4.484,2.966A44.675,44.675,0,0,1-2573.385,2453.941Zm-.452-87.625a41.7,41.7,0,0,0-30.864,13.471,43.171,43.171,0,0,0-10.922,36.659c2.526,15.377,15.46,32.98,37.886,35.294a42.631,42.631,0,0,0,43.121-24.93,6.26,6.26,0,0,1,6.283-4.123h.034c20.887.067,42.143.06,62.7.051l11.806,0a69.03,69.03,0,0,0,8.5-.46,55.253,55.253,0,0,0,39.906-25.531,55.771,55.771,0,0,0,6.121-47.428c-7.744-23.575-29.029-38.843-54.225-38.9-33.706-.073-68.273-.036-98.771,0h-.567a29.124,29.124,0,0,1-19.914-7.294,28.95,28.95,0,0,1-8.043-31.337,28.661,28.661,0,0,1,26.677-19.071c9.089-.129,136.865-.078,144.6-.012l.07.99v-.989c1.3,0,1.745-.315,2.024-.7a2.975,2.975,0,0,0-.053-1.565,3.86,3.86,0,0,0-2.062-.416c-.337-.014-.672-.011-1.007-.011h-143.4a30.248,30.248,0,0,0-3.558.223c-18.579,2.2-28.733,19.445-27.488,34.163,1.329,15.7,14.893,28.546,30.235,28.637,23.084.138,46.563.079,69.269.023l3.875-.01q3.545,0,7.074.014l.639,0c6.043.017,12.893.037,19.446-.048a56.944,56.944,0,0,1,20.542,3.483,53.16,53.16,0,0,1,34.646,48.079c.575,16.393-5.348,30.415-17.6,41.679-9.5,8.73-20.471,13.33-32.611,13.67-11.95.334-24.04.223-35.733.115q-3.365-.031-6.719-.058c-2.552-.073-5.177-.06-7.493-.049h-.288c-1.052,0-2.1.009-3.156.007q-10.957-.028-21.907,0a5.521,5.521,0,0,1-4.331-1.583,5.19,5.19,0,0,1-1.139-4.248,51.721,51.721,0,0,0,.129-6.345c-.017-.823-.033-1.643-.035-2.462-.01-2.542-.016-4.221,1.4-5.586,1.36-1.312,3.034-1.319,5.571-1.326q6.708-.021,13.4,0c6.877.012,14.673.028,22.327-.065,5.927.029,11.956.022,17.275.019q6.677-.005,13.353,0c2.24-.016,4.636-.15,7.528-.425,15.025-1.427,27.351-14.419,28.064-29.579a32.113,32.113,0,0,0-8.809-23.575,30.2,30.2,0,0,0-22-9.515q-16.243.008-32.459.026c-20.659.02-44.076.041-67.152.017-.241-.006-.453,0-.668.009l-.209.006a13.765,13.765,0,0,1-4.057-.333,7.375,7.375,0,0,0-1-.121,51.575,51.575,0,0,1-38.3-20.493c-9.576-12.28-13.128-26.21-10.557-41.4,2.906-17.165,12.253-30.193,27.78-38.724a52.44,52.44,0,0,1,22.728-6.248,11.47,11.47,0,0,1,2.712-.2c.218,0,.395,0,.564.006,17.369-.04,39.053,0,56.477.041,7.178.015,34.617.029,52.914.039l14.665.008c0-.865.027-1.721.068-2.549-27.423-.032-100.616-.02-123.117-.013a67.873,67.873,0,0,0-10.486.708,56.055,56.055,0,0,0-42.77,32.673,55.531,55.531,0,0,0,4.132,53.155c11.118,17.074,27.4,25.781,48.4,25.879,16.266.076,32.658.059,48.51.042q12.209-.011,24.419-.012l1.586,0q2.782,0,5.565-.01h.419c6.792-.014,13.813-.032,20.732.133a26.71,26.71,0,0,1,21.283,11.159c7.03,9.359,8.079,19.775,3.034,30.125-5.177,10.62-14.4,16.251-26.674,16.284-10.737.03-22.428.039-36.8.033h-5.332c-10.769,0-21.785,0-32.642.035-2.986.045-4.951-1.209-6.32-4.046-7.308-15.138-19.211-23.545-35.379-24.99C-2571.256,2366.374-2572.555,2366.316-2573.837,2366.316Zm1.245,83.685c-.661,0-1.333-.017-2-.052-.119,0-.3.006-.487.006-17.268,0-33.651-13.392-38.107-31.153a40.63,40.63,0,0,1,7.555-34.892,39.282,39.282,0,0,1,30.758-15.654h.013c.435,0,.809.032,1.184.069l.171.016c17.811-.871,35.277,12.883,39.777,31.358a40.992,40.992,0,0,1-8.493,35.66A39.553,39.553,0,0,1-2572.592,2450Zm-1.961-2.028c.7.033,1.334.05,1.961.05a37.584,37.584,0,0,0,28.852-13.927l.76.631-.76-.631a39.008,39.008,0,0,0,8.093-33.929c-4.288-17.609-20.9-30.731-37.826-29.849l-.069,0-.321-.029c-.343-.034-.655-.047-1-.06a37.314,37.314,0,0,0-29.2,14.887,38.659,38.659,0,0,0-7.2,33.2c4.241,16.907,19.8,29.657,36.188,29.657C-2574.9,2447.977-2574.728,2447.975-2574.553,2447.973Z" transform="translate(2618.281 -2223.257)" fill="#2d2e82"/>
      <path id="Tracé_664" data-name="Tracé 664" d="M-2573.428,2453.981a44.537,44.537,0,0,1-4.563-.235c-23.5-2.425-37.058-20.884-39.708-37.009a45.217,45.217,0,0,1,11.446-38.394,43.74,43.74,0,0,1,32.373-14.129c1.339,0,2.7.061,4.047.182,16.941,1.514,29.407,10.31,37.052,26.146,1.023,2.122,2.173,2.883,4.371,2.883h.077c10.854-.031,21.913-.033,32.609-.035h5.383c15.233,0,26.579,0,36.79-.033,11.433-.03,20.018-5.261,24.828-15.126,4.683-9.608,3.7-19.285-2.83-27.984a24.713,24.713,0,0,0-19.686-10.337c-6.722-.161-13.563-.146-20.178-.134l-.918,0q-2.322.007-4.641.008l-9.49.006q-8.721,0-17.442.01c-14.963.017-31.924.034-48.521-.042-21.732-.1-38.593-9.124-50.114-26.814a57.581,57.581,0,0,1-4.287-55.119,58.108,58.108,0,0,1,44.335-33.869,69.846,69.846,0,0,1,10.8-.732c17.94-.007,96.424-.022,124.163.014h1.135l-.066,1.133c-.1,1.633-.152,3.011-.108,4.43l.034,1.106-18.273-.01c-18.752-.011-44.433-.024-51.419-.039h-1.085c-17.1-.036-38.377-.078-55.381-.039-.134,0-.278,0-.421,0l-.14,0a9.464,9.464,0,0,0-2.342.164l-.173.025a50.461,50.461,0,0,0-21.941,6c-14.948,8.212-23.946,20.749-26.741,37.261-2.472,14.6.943,27.986,10.149,39.791a49.59,49.59,0,0,0,36.822,19.705,8.915,8.915,0,0,1,1.354.179,12.065,12.065,0,0,0,3.484.271l.215-.005c.266-.008.507-.014.753-.01,23.421.025,47.655,0,67.127-.018q16.224-.016,32.447-.026a32.25,32.25,0,0,1,23.5,10.153,34.182,34.182,0,0,1,9.377,25.094c-.76,16.161-13.906,30.012-29.927,31.534-2.953.281-5.4.418-7.716.434-4.3-.013-8.662-.008-12.879-.006h-.478c-5.336.006-11.362.01-17.27-.019-7.83.1-15.874.079-22.338.066-4.115-.007-8.778-.014-13.39,0-2.407.008-3.412.039-4.146.748-.75.724-.776,1.718-.767,4.1,0,.79.018,1.593.033,2.369l0,.058a53.2,53.2,0,0,1-.14,6.6,3.235,3.235,0,0,0,.62,2.653,3.569,3.569,0,0,0,2.8.9c6.764-.009,14.43-.02,21.909,0q1.571,0,3.143-.007l.536,0c2.257-.008,4.816-.021,7.291.052,2.215.016,4.451.037,6.689.058,11.668.108,23.729.219,35.667-.115,11.63-.327,22.151-4.744,31.275-13.127,11.793-10.839,17.492-24.327,16.939-40.092a51.108,51.108,0,0,0-33.308-46.221,54.672,54.672,0,0,0-19.8-3.352c-6.556.087-13.4.066-19.447.048l-.669,0q-3.53-.01-7.066-.014l-3.87.01c-22.636.057-46.042.116-69.288-.022-16.381-.1-30.859-13.791-32.275-30.522-1.327-15.672,9.5-34.039,29.3-36.382a31.944,31.944,0,0,1,3.8-.238h143.4c.405,0,.742,0,1.084.012,1.831.067,3.006.455,3.593,1.186.547.677.695,1.781.453,3.375l-.042.23-.106.173c-.787,1.269-1.984,1.835-3.883,1.835h-.087c-9.062-.078-135.923-.114-144.549.012a26.614,26.614,0,0,0-24.771,17.715,26.875,26.875,0,0,0,7.471,29.089,27.1,27.1,0,0,0,18.512,6.778h1.242c30.311-.032,64.663-.069,98.137,0,26.1.054,48.151,15.878,56.178,40.313a57.823,57.823,0,0,1-6.339,49.175,57.311,57.311,0,0,1-41.394,26.472,70.912,70.912,0,0,1-8.751.474l-11.806.005c-19.311.007-41.2.019-62.7-.051h-.031c-2.244,0-3.439.792-4.409,2.918a45.093,45.093,0,0,1-16.593,19.248A44.264,44.264,0,0,1-2573.428,2453.981Zm-.452-89.6a43.58,43.58,0,0,0-32.253,14.076,45.053,45.053,0,0,0-11.4,38.256c2.64,16.065,16.145,34.456,39.561,36.872a44.487,44.487,0,0,0,4.546.234,44.1,44.1,0,0,0,23.963-7.087,44.925,44.925,0,0,0,16.532-19.177c.99-2.171,2.208-2.994,4.477-3.014v-.907l.165,0,.028.909c21.477.069,43.333.056,62.621.051l11.806,0a71.086,71.086,0,0,0,8.731-.473,57.144,57.144,0,0,0,41.275-26.4,57.66,57.66,0,0,0,6.322-49.035c-8-24.366-29.994-40.145-56.022-40.2-33.473-.073-67.826-.035-98.136,0l-1.242,0a27.256,27.256,0,0,1-18.621-6.82,27.043,27.043,0,0,1-7.517-29.27,26.781,26.781,0,0,1,24.923-17.823c8.625-.125,135.489-.089,144.552-.012h.087c1.834,0,2.988-.542,3.741-1.756l.1-.158.028-.183c.235-1.546.1-2.608-.418-3.249-.557-.69-1.692-1.059-3.471-1.124-.34-.013-.676-.013-1.079-.013h-143.4a31.717,31.717,0,0,0-3.781.237c-19.7,2.332-30.473,20.608-29.153,36.2,1.408,16.65,15.813,30.274,32.111,30.372,23.246.139,46.651.078,69.287.022l3.87-.01q3.539,0,7.067.014l.669,0c6.042.017,12.889.037,19.445-.048a54.847,54.847,0,0,1,19.856,3.362,51.27,51.27,0,0,1,33.414,46.37c.554,15.814-5.163,29.345-16.992,40.216-9.154,8.413-19.712,12.845-31.383,13.172-11.942.333-24,.222-35.668.114-2.242-.02-4.479-.041-6.695-.057-2.473-.071-5.031-.061-7.288-.052l-.536,0q-1.573.006-3.145.007c-7.478-.019-15.144-.009-21.909,0a3.714,3.714,0,0,1-2.926-.957,3.387,3.387,0,0,1-.662-2.781,52.911,52.911,0,0,0,.14-6.582v-.057c-.015-.778-.031-1.582-.033-2.373-.009-2.427.019-3.444.818-4.215.78-.754,1.806-.787,4.26-.8,4.613-.013,9.276-.005,13.39,0,6.463.012,14.508.029,22.337-.065,5.91.029,11.936.024,17.251.019h.5c4.217,0,8.578-.007,12.878.005,2.307-.016,4.754-.154,7.7-.433,15.942-1.514,29.022-15.3,29.778-31.377a34.017,34.017,0,0,0-9.331-24.972,32.089,32.089,0,0,0-23.384-10.1q-16.223.008-32.447.026c-19.472.019-43.706.042-67.128.018-.246,0-.482,0-.746.01l-.2,0a12.114,12.114,0,0,1-3.543-.276,8.65,8.65,0,0,0-1.326-.173,49.758,49.758,0,0,1-36.94-19.768c-9.236-11.844-12.661-25.275-10.182-39.92,2.8-16.565,11.83-29.141,26.824-37.378a50.6,50.6,0,0,1,22-6.021l.159-.023a9.619,9.619,0,0,1,2.374-.167l.142,0c.14,0,.281.005.414,0,17.009-.037,38.287,0,55.385.039h1.085c6.985.014,32.666.028,51.418.039l18.1.01-.03-.935c-.044-1.426.011-2.809.107-4.445l.057-.958h-.96c-27.739-.037-106.223-.021-124.163-.014a69.792,69.792,0,0,0-10.776.729,57.943,57.943,0,0,0-44.21,33.774,57.416,57.416,0,0,0,4.275,54.962c11.488,17.641,28.3,26.638,49.976,26.739,16.6.077,33.556.06,48.521.042q8.722-.007,17.442-.01l9.489-.006q2.321,0,4.641-.008l.918,0c6.616-.013,13.458-.028,20.183.135a24.866,24.866,0,0,1,19.814,10.4c6.574,8.751,7.558,18.488,2.846,28.155-4.839,9.925-13.476,15.188-24.975,15.218-10.211.028-21.558.038-36.791.033h-5.383c-10.7,0-21.755,0-32.607.035-2.3.018-3.542-.787-4.6-2.975-7.618-15.779-20.039-24.545-36.917-26.054C-2571.189,2364.438-2572.546,2364.378-2573.88,2364.378Zm.451,87.626a41.982,41.982,0,0,1-4.359-.226c-22.469-2.317-35.427-19.955-37.959-35.361a43.255,43.255,0,0,1,10.943-36.729,41.786,41.786,0,0,1,30.924-13.5c1.287,0,2.59.059,3.871.174,16.2,1.447,28.125,9.871,35.447,25.037,1.333,2.762,3.217,4,6.09,4l.154,0c10.843-.031,21.9-.033,32.594-.035h5.382c14.8.008,26.493,0,36.795-.033,12.24-.033,21.438-5.648,26.6-16.236,5.03-10.32,3.984-20.707-3.027-30.04a26.63,26.63,0,0,0-21.219-11.126c-6.816-.164-13.739-.148-20.434-.134l-.716,0q-2.32.007-4.639.008l-2.512,0q-12.214,0-24.419.012h-.374c-15.731.015-32,.032-48.136-.043-21.024-.1-37.331-8.817-48.466-25.916a55.614,55.614,0,0,1-4.138-53.234,56.136,56.136,0,0,1,42.832-32.721,67.864,67.864,0,0,1,10.5-.708c17.524-.006,94.512-.021,123.117.012h.086l0,.086c-.048.973-.07,1.782-.069,2.546v.082l-16.245-.009c-18.751-.01-44.431-.024-51.416-.039-17.378-.035-39-.079-56.475-.04-.174,0-.347,0-.566-.006a11.4,11.4,0,0,0-2.693.2,52.369,52.369,0,0,0-22.706,6.24c-15.5,8.518-24.837,21.525-27.739,38.664-2.567,15.168.979,29.074,10.541,41.336a51.5,51.5,0,0,0,38.238,20.461,7.842,7.842,0,0,1,1.011.122,13.616,13.616,0,0,0,4.035.333l.266-.008c.194-.005.394-.013.616-.007,23.441.024,47.676,0,67.15-.017q16.223-.015,32.46-.025a30.277,30.277,0,0,1,22.059,9.541,32.2,32.2,0,0,1,8.831,23.635c-.715,15.2-13.074,28.227-28.139,29.657-2.889.274-5.283.409-7.534.425-4.452-.012-8.976-.008-13.353,0h-1.168c-4.974,0-10.611.007-16.109-.02-7.587.091-15.322.077-22.147.065h-.18c-4.737-.008-9.014-.015-13.4,0-2.516.008-4.178.013-5.513,1.3-1.386,1.34-1.381,3.006-1.371,5.526,0,.836.02,1.7.035,2.461a51.623,51.623,0,0,1-.13,6.356,5.117,5.117,0,0,0,1.118,4.184,5.451,5.451,0,0,0,4.271,1.556c7.812-.011,14.852-.017,21.907,0q1.432,0,2.868-.005l.576,0c2.313-.01,4.937-.023,7.495.05q3.29.025,6.591.057h.126c11.678.108,23.752.22,35.73-.115,12.12-.339,23.074-4.932,32.559-13.647,12.237-11.246,18.151-25.248,17.577-41.615a53.077,53.077,0,0,0-34.593-48,56.74,56.74,0,0,0-20.512-3.477c-6.536.086-13.371.065-19.4.047l-.684,0q-3.533-.01-7.073-.013l-3.875.009c-22.63.057-46.031.117-69.269-.022-15.384-.092-28.984-12.972-30.317-28.713-1.249-14.755,8.933-32.047,27.56-34.252a30.388,30.388,0,0,1,3.568-.224h143.574c.274,0,.557,0,.837.011a3.868,3.868,0,0,1,2.119.443,2.9,2.9,0,0,1,.073,1.631l-.015.038c-.271.373-.7.719-2.009.732v.907l-.164.006-.064-.914c-9.633-.077-135.855-.11-144.518.013a28.578,28.578,0,0,0-26.6,19.016,28.868,28.868,0,0,0,8.02,31.248,29.068,29.068,0,0,0,19.859,7.274h.567c30.4-.035,64.856-.071,98.771,0,25.233.053,46.548,15.343,54.3,38.953a55.853,55.853,0,0,1-6.13,47.5,55.338,55.338,0,0,1-39.966,25.569,69.07,69.07,0,0,1-8.51.461l-11.807,0c-19.31.008-41.2.019-62.7-.05h-.034a6.186,6.186,0,0,0-6.208,4.075A42.785,42.785,0,0,1-2573.429,2452Zm-.451-85.648a41.621,41.621,0,0,0-30.8,13.445,43.09,43.09,0,0,0-10.9,36.589c2.522,15.347,15.431,32.916,37.814,35.225a42.551,42.551,0,0,0,43.038-24.883,6.335,6.335,0,0,1,6.358-4.172h.034c21.5.07,43.386.059,62.7.051l11.807,0a69.036,69.036,0,0,0,8.49-.46,55.171,55.171,0,0,0,39.847-25.494,55.692,55.692,0,0,0,6.112-47.358c-7.733-23.541-28.987-38.786-54.147-38.839-33.915-.073-68.371-.036-98.771,0h-.567a29.228,29.228,0,0,1-19.969-7.316,29.035,29.035,0,0,1-8.066-31.427,28.744,28.744,0,0,1,26.754-19.124c4.1-.058,34.589-.081,66.558-.081,35.711,0,73.277.029,78.039.07h.076c1.269,0,1.687-.309,1.938-.648a2.963,2.963,0,0,0-.041-1.488,4.078,4.078,0,0,0-2-.381c-.278-.011-.559-.011-.831-.011h-143.574a30.214,30.214,0,0,0-3.549.223c-18.529,2.194-28.657,19.4-27.415,34.075,1.325,15.657,14.852,28.469,30.153,28.562,23.237.138,46.638.078,69.268.022l3.874-.01q3.546,0,7.075.013l.684,0c6.03.019,12.864.038,19.4-.048a56.991,56.991,0,0,1,20.571,3.487,53.242,53.242,0,0,1,34.7,48.154c.576,16.418-5.356,30.463-17.63,41.742-9.515,8.745-20.5,13.351-32.665,13.692-11.981.334-24.057.224-35.736.115h-.127q-3.3-.03-6.591-.057c-2.558-.073-5.179-.059-7.491-.049l-.576,0-2.869.005c-7.055-.019-14.1-.011-21.907,0a5.6,5.6,0,0,1-4.392-1.611,5.275,5.275,0,0,1-1.16-4.312,51.272,51.272,0,0,0,.129-6.335c-.015-.762-.032-1.626-.034-2.464-.01-2.562-.017-4.256,1.421-5.644,1.384-1.336,3.072-1.342,5.627-1.35,4.386-.013,8.665-.007,13.4,0h.18c6.825.012,14.559.026,22.146-.064,5.5.027,11.137.024,16.109.02h1.168c4.376,0,8.9-.007,13.353,0,2.245-.016,4.635-.151,7.52-.424,14.983-1.425,27.278-14.382,27.989-29.5a32.03,32.03,0,0,0-8.786-23.514,30.116,30.116,0,0,0-21.939-9.49q-16.244.009-32.46.026c-19.473.019-43.709.041-67.152.018-.219,0-.417,0-.609.007l-.265.008a13.723,13.723,0,0,1-4.081-.336,7.337,7.337,0,0,0-.983-.118,51.663,51.663,0,0,1-38.356-20.525c-9.591-12.3-13.148-26.25-10.573-41.465,2.911-17.191,12.271-30.239,27.822-38.781a52.488,52.488,0,0,1,22.763-6.258,11.257,11.257,0,0,1,2.717-.2c.218,0,.394,0,.564.006,17.47-.038,39.1.005,56.475.04,6.985.014,32.665.027,51.415.038l16.081.01c0-.721.021-1.483.064-2.385-28.672-.034-105.524-.018-123.031-.013a67.881,67.881,0,0,0-10.473.706,55.976,55.976,0,0,0-42.707,32.625,55.448,55.448,0,0,0,4.126,53.078c11.1,17.049,27.363,25.743,48.328,25.841,16.138.076,32.4.059,48.135.042h.374q12.21-.011,24.419-.013l2.512,0q2.319,0,4.638-.008l.717,0c6.7-.016,13.62-.03,20.438.134a26.789,26.789,0,0,1,21.347,11.191c7.05,9.385,8.1,19.832,3.042,30.21-5.192,10.649-14.44,16.3-26.748,16.329-10.3.028-22,.038-36.8.033h-5.382c-10.694,0-21.752,0-32.593.035h-.158c-2.944,0-4.872-1.268-6.236-4.094-7.3-15.11-19.176-23.5-35.313-24.944C-2571.3,2366.413-2572.6,2366.355-2573.88,2366.355Zm1.245,83.685c-.661,0-1.336-.017-2-.051-.114,0-.3.006-.484.006-17.3,0-33.722-13.42-38.187-31.216a40.715,40.715,0,0,1,7.571-34.962,39.365,39.365,0,0,1,30.822-15.687,12.031,12.031,0,0,1,1.207.07l.17.016c17.836-.88,35.346,12.928,39.85,31.42a41.073,41.073,0,0,1-8.51,35.732A39.637,39.637,0,0,1-2572.635,2450.04Zm-2-.216c.672.034,1.343.051,2,.051a39.474,39.474,0,0,0,30.31-14.612,40.913,40.913,0,0,0,8.476-35.589c-4.486-18.417-21.913-32.16-39.694-31.295l-.181-.017c-.392-.037-.75-.068-1.177-.068a39.211,39.211,0,0,0-30.706,15.622,40.548,40.548,0,0,0-7.54,34.822c4.447,17.725,20.795,31.09,38.026,31.09C-2574.938,2449.829-2574.754,2449.828-2574.636,2449.824Zm2-1.761c-.618,0-1.26-.016-1.963-.05-.175,0-.349,0-.523,0-16.426,0-32.018-12.777-36.268-29.719a38.745,38.745,0,0,1,7.217-33.271,37.392,37.392,0,0,1,29.267-14.919c.322.012.651.025,1.008.061l.321.028.057,0c.541-.029,1.08-.042,1.62-.042,16.387,0,32.127,12.858,36.291,29.953a39.086,39.086,0,0,1-8.059,33.937l.7.579-.105.127-.7-.579A37.659,37.659,0,0,1-2572.635,2448.063Zm-1.96-.215h0c.7.034,1.342.05,1.958.05a37.5,37.5,0,0,0,28.788-13.9,38.926,38.926,0,0,0,8.077-33.857c-4.145-17.021-19.817-29.827-36.13-29.827-.538,0-1.073.014-1.612.042l-.069,0-.332-.03c-.353-.034-.68-.047-1-.059a37.227,37.227,0,0,0-29.135,14.854,38.582,38.582,0,0,0-7.187,33.13c4.233,16.872,19.756,29.594,36.108,29.594q.261,0,.523,0Z" transform="translate(2618.323 -2223.214)" fill="#2d2e82"/>
    </g>
  </g>
  <g id="Groupe_241" data-name="Groupe 241" transform="translate(26.767 321.453)">
    <path id="Tracé_665" data-name="Tracé 665" d="M-2570.051,2514.593q3.97-1.871,7.948-3.729l2.23-1.045,1.621-.776q2.493-1.224,4.98-2.452c4.625-2.281,9.406-4.64,14.15-6.884,2.612-1.236,3.618-2.5,3.587-4.522-.029-1.909-1.029-3.118-3.565-4.316-4.665-2.2-9.363-4.514-13.907-6.751q-2.453-1.21-4.908-2.414l-1.469-.7-2.733-1.285q-4.316-2.028-8.639-4.044a6.636,6.636,0,0,0-2.732-.737,2.9,2.9,0,0,0-2.29,1.076c-1.195,1.324-1.234,2.754-.136,4.936q1.007,2,2,4.01c1.285,2.583,2.613,5.252,3.962,7.847a4.934,4.934,0,0,1,.014,4.929c-1.185,2.248-2.34,4.57-3.458,6.814-.719,1.446-1.439,2.892-2.172,4.331-1.449,2.844-1.5,4.215-.224,5.644C-2574.884,2515.537-2573.561,2516.249-2570.051,2514.593Zm4.078-14.593a8.744,8.744,0,0,0,.334-7.051c-.293-.758-.6-1.559-.9-2.359-.844-2.229-1.718-4.534-2.319-5.756l-2.167-4.4,13.977,7.008,16.735,7.834-16.688,7.837-14.087,7.108Z" transform="translate(2577.372 -2474.277)" fill="#2d2e82"/>
    <path id="Tracé_666" data-name="Tracé 666" d="M-2573.838,2515.9a3.555,3.555,0,0,1-2.789-1.276c-1.674-1.869-1.246-3.686.128-6.383.719-1.41,1.424-2.827,2.13-4.242l.041-.084c1.125-2.26,2.28-4.579,3.464-6.828a4.274,4.274,0,0,0-.015-4.318c-1.365-2.625-2.688-5.285-3.968-7.858q-1-2.005-2-4.007c-1.225-2.435-1.156-4.133.236-5.673a3.575,3.575,0,0,1,2.779-1.294,7.273,7.273,0,0,1,3.01.8q4.328,2.01,8.642,4.046l4.207,1.989q2.114,1.036,4.214,2.072l.7.345c4.574,2.253,9.253,4.557,13.9,6.747,2.768,1.308,3.91,2.727,3.944,4.9.035,2.295-1.113,3.781-3.963,5.128-4.728,2.236-9.494,4.586-14.1,6.861-1.7.837-3.357,1.656-5.019,2.471l-3.862,1.826q-3.975,1.861-7.947,3.729h0A9.05,9.05,0,0,1-2573.838,2515.9Zm0-40.643a2.247,2.247,0,0,0-1.8.859c-.852.943-1.155,1.975-.037,4.2q1.008,2,2,4.012c1.277,2.568,2.6,5.222,3.956,7.836a5.616,5.616,0,0,1,.012,5.54c-1.178,2.236-2.329,4.547-3.442,6.783l-.05.1c-.707,1.419-1.414,2.84-2.134,4.254-1.462,2.87-1.28,3.832-.319,4.9.531.593,1.419,1.589,4.968-.086h0q3.973-1.873,7.95-3.73l3.846-1.819q2.483-1.22,4.974-2.45c4.651-2.294,9.422-4.647,14.159-6.888,2.7-1.278,3.232-2.447,3.21-3.917-.022-1.383-.562-2.49-3.188-3.73-4.652-2.194-9.336-4.5-13.865-6.731l-.752-.37q-2.1-1.036-4.205-2.067l-4.194-1.982q-4.315-2.03-8.636-4.044A6.118,6.118,0,0,0-2573.833,2475.255Zm.922,36.111,6-12a8.085,8.085,0,0,0,.309-6.519c-.294-.76-.6-1.561-.9-2.363-.839-2.215-1.706-4.5-2.294-5.7l-3.033-6.159,15.73,7.888,17.993,8.421-17.961,8.435Zm7.184-11.412-4.224,8.441,12.31-6.21,15.433-7.248-15.462-7.238-12.24-6.138,1.3,2.64c.616,1.251,1.495,3.571,2.345,5.814.3.8.606,1.6.9,2.354a9.4,9.4,0,0,1-.359,7.584Z" transform="translate(2577.716 -2473.936)" fill="#2d2e82"/>
  </g>
  <g id="Groupe_242" data-name="Groupe 242" transform="translate(167.712 177.258)">
    <path id="Tracé_667" data-name="Tracé 667" d="M-2363.885,2255.177" transform="translate(2363.885 -2255.177)"/>
  </g>
  <g id="Groupe_243" data-name="Groupe 243" transform="translate(209.229 152.788)">
    <path id="Tracé_668" data-name="Tracé 668" d="M-2300.819,2218.052a2.133,2.133,0,0,0-.081.272c.119-.042.236-.079.355-.122h0A2.591,2.591,0,0,0-2300.819,2218.052Z" transform="translate(2300.9 -2218.052)"/>
  </g>
  <g id="Groupe_261" data-name="Groupe 261" transform="translate(141.825)">
    <g id="Groupe_244" data-name="Groupe 244" transform="translate(61.913 100.221)">
      <path id="Tracé_669" data-name="Tracé 669" d="M-2309.229,2138.32c.023.036.042.074.066.109.084-.045.172-.077.256-.126h0C-2309.014,2138.31-2309.122,2138.314-2309.229,2138.32Z" transform="translate(2309.229 -2138.303)"/>
    </g>
    <g id="Groupe_258" data-name="Groupe 258" transform="translate(0)">
      <g id="Groupe_255" data-name="Groupe 255" transform="translate(1.931)">
        <g id="Groupe_246" data-name="Groupe 246" transform="translate(2.533 15.094)">
          <g id="Groupe_245" data-name="Groupe 245">
            <path id="Tracé_670" data-name="Tracé 670" d="M-2373.73,2129.35c2-2.255,2.078-3.858.214-6.28-3.879-5.042-7.917-9.966-10.817-15.689-7.364-14.527-15.167-29.507-10.785-45.178,6.849-24.5,22.936-45.5,47.681-51.412,18.517-4.422,41.373.352,56.879,11.515,11.5,8.276,19.708,23.3,23.728,36.866,5.908,19.938,3.4,38.992-9.085,55.74-16.513,22.146-33.845,43.682-50.779,65.516-1.032,1.33-1.425.844-2.193-.146q-12.016-15.474-24.1-30.9c-2.041-2.612-3.253-2.912-6.263-1.645q-1.8-2.351-3.6-4.7c-.22-.488.084-.871.269-1.27a3.493,3.493,0,0,0-.307-4.005,3.163,3.163,0,0,0-3.873-.848c-.339.133-.723.34-1.064-.032Z" transform="translate(2396.387 -2009.155)" fill="#a9c9ff"/>
          </g>
        </g>
        <g id="Groupe_248" data-name="Groupe 248" transform="translate(0 15.294)">
          <g id="Groupe_247" data-name="Groupe 247">
            <path id="Tracé_671" data-name="Tracé 671" d="M-2303.2,2102.255a36.918,36.918,0,0,1-23.086,11.773,37.578,37.578,0,0,1-29.247-8.447,37.014,37.014,0,0,1-13.648-24.3,37.585,37.585,0,0,1,8.086-29.53,35.313,35.313,0,0,1,15.268-11.412c2.478-.945,3.431-2.788,4.091-5.034l6.593-1.191-11.556-24.651c-49.523,10.038-53.52,64.767-53.52,64.767-.381,19.293,10.629,37.449,10.629,37.449l58.475,71.617,40.748-53.664Z" transform="translate(2400.229 -2009.459)" fill="#94bbff"/>
          </g>
        </g>
        <g id="Groupe_250" data-name="Groupe 250" transform="translate(109.861)">
          <g id="Groupe_249" data-name="Groupe 249">
            <path id="Tracé_672" data-name="Tracé 672" d="M-2233.557,1986.256" transform="translate(2233.557 -1986.256)" fill="#97bbe4"/>
          </g>
        </g>
        <g id="Groupe_252" data-name="Groupe 252" transform="translate(110.11 0.392)">
          <g id="Groupe_251" data-name="Groupe 251">
            <path id="Tracé_673" data-name="Tracé 673" d="M-2233.179,1986.85" transform="translate(2233.179 -1986.85)" fill="#97bbe4"/>
          </g>
        </g>
        <g id="Groupe_254" data-name="Groupe 254" transform="translate(27.615 139.843)">
          <g id="Groupe_253" data-name="Groupe 253">
            <path id="Tracé_674" data-name="Tracé 674" d="M-2356.934,2199.174c2.242-1.173,4.143-.986,5.428.536,1.352,1.6,1.205,3.421-.453,5.621-2.46,1.2-4.263.958-5.561-.736C-2358.769,2202.963-2358.583,2201.242-2356.934,2199.174Z" transform="translate(2358.333 -2198.413)" fill="#2d2e82"/>
          </g>
        </g>
      </g>
      <g id="Groupe_256" data-name="Groupe 256" transform="translate(31.808 39.149)">
        <path id="Tracé_675" data-name="Tracé 675" d="M-2276.758,2083.479c-1.68-13.184-8.672-23.137-20.192-29.753-2.347-1.349-2.656-2.406-2.958-5.261-.49-.637-2.851-.993-3.539-1.2a53.55,53.55,0,0,0-7.825-1.6c-.586.177-.718.726-.985,1.175-1.649,2.775-4.893,2.8-6.548.046-.269-.447-.392-1-.939-1.232l-.031.006c-2.241.4-5.575,1.973-7.816,2.378-.673,2.291-.552,3-3.077,3.969a36,36,0,0,0-15.569,11.637,38.319,38.319,0,0,0-8.245,30.112,37.746,37.746,0,0,0,13.916,24.783,38.324,38.324,0,0,0,29.825,8.613,37.64,37.64,0,0,0,23.541-12c.573-.613,1.136-1.24,1.683-1.9A37.637,37.637,0,0,0-2276.758,2083.479Z" transform="translate(2354.903 -2045.649)" fill="#fefefe"/>
      </g>
      <g id="Groupe_257" data-name="Groupe 257" transform="translate(0 10.739)">
        <path id="Tracé_676" data-name="Tracé 676" d="M-2360.19,2151.886q.744.946,1.484,1.894c1.71,2.193,3.418,4.387,5.207,6.688l2.2,2.829,14.2,18.54a6.654,6.654,0,0,0,5.321,2.627h0a6.655,6.655,0,0,0,5.323-2.63l14.544-19.019c.2-.271.349-.472.5-.669q5.072-6.5,10.134-13.016c7.653-9.839,15.566-20.013,23.424-29.963,13.083-16.569,18.359-35.086,15.682-55.037a67.2,67.2,0,0,0-19.847-39.833c-16.534-16.282-36.524-23.033-59.415-20.067a66.929,66.929,0,0,0-44.82,25.143c-14.552,18.028-19.156,38.866-13.684,61.937,2.557,10.779,8.007,20.726,17.669,32.255.948,1.13,1.739,1.469,3.907.485.5-.26,1.863-1.024.922-3.276a11.31,11.31,0,0,0-1.71-2.575c-.185-.233-.371-.465-.552-.7l-.89-1.154a80.915,80.915,0,0,1-8.165-11.994,64.682,64.682,0,0,1-6.813-40.671,63.445,63.445,0,0,1,18.306-35.694,62.543,62.543,0,0,1,23.8-14.97,64.5,64.5,0,0,1,29.667-3.242,62.982,62.982,0,0,1,26.1,9.314,64.451,64.451,0,0,1,26.826,33.554,62.753,62.753,0,0,1,3.388,26.5,69.885,69.885,0,0,1-3.945,17.75c-2.595,7.169-6.73,13.247-12.14,20.168q-10.677,13.657-21.336,27.329-12.231,15.68-24.479,31.348c-.767.98-1.412,1.827-2.477,1.821-1.044,0-1.68-.833-2.415-1.793-3.41-4.448-6.927-8.94-10.329-13.282q-3.128-3.994-6.246-8-1.012-1.3-2.015-2.613c-1.7-2.206-3.448-4.488-5.246-6.657a3.6,3.6,0,0,0-2.442-1.517,2.391,2.391,0,0,0-1.773.782c-1.529,2.013-1.506,2.751.089,4.811Q-2361.211,2150.593-2360.19,2151.886Z" transform="translate(2402.816 -2002.89)" fill="#2d2e82"/>
        <path id="Tracé_677" data-name="Tracé 677" d="M-2332.109,2184.782a7.311,7.311,0,0,1-5.848-2.885l-14.2-18.541-7.406-9.512q-.635-.813-1.273-1.625l-.21-.268.518-.407-.553.363q-1-1.275-2-2.553c-1.788-2.311-1.8-3.36-.093-5.614l.067-.075a2.992,2.992,0,0,1,2.261-.968,4.216,4.216,0,0,1,2.92,1.755c1.815,2.188,3.567,4.469,5.262,6.675q1,1.308,2.013,2.61,3.021,3.889,6.063,7.762l.181.232c3.389,4.327,6.892,8.8,10.334,13.289.749.978,1.206,1.531,1.894,1.535h.008c.687,0,1.152-.552,1.912-1.522q12.307-15.731,24.514-31.394l.7-.894q10.314-13.22,20.638-26.436c5.372-6.871,9.475-12.9,12.04-19.985a69.186,69.186,0,0,0,3.908-17.585,62.109,62.109,0,0,0-3.354-26.222,63.808,63.808,0,0,0-26.559-33.217,62.352,62.352,0,0,0-25.834-9.215,63.849,63.849,0,0,0-29.366,3.211,61.893,61.893,0,0,0-23.552,14.816,62.8,62.8,0,0,0-18.121,35.33,64.02,64.02,0,0,0,6.748,40.263,80.211,80.211,0,0,0,8.1,11.893l.893,1.157c.178.233.363.462.546.692a11.752,11.752,0,0,1,1.8,2.732c.446,1.066.879,3.018-1.224,4.115-2.268,1.032-3.451.865-4.717-.646-9.733-11.612-15.224-21.644-17.8-32.528-5.523-23.279-.875-44.307,13.811-62.5a67.572,67.572,0,0,1,45.248-25.383c23.1-2.994,43.276,3.821,59.962,20.251a67.845,67.845,0,0,1,20.037,40.216c2.7,20.135-2.62,38.818-15.818,55.533-7.856,9.948-15.769,20.121-23.419,29.958q-5.065,6.511-10.136,13.018c-.148.191-.292.385-.486.647l-14.557,19.036A7.312,7.312,0,0,1-2332.109,2184.782Zm-30.047-40.2c-1.309,1.73-1.289,2.15.117,3.966.659.852,1.325,1.7,1.99,2.548l.245.311q.639.816,1.276,1.629l7.409,9.518,14.208,18.544a6,6,0,0,0,4.8,2.369,6,6,0,0,0,4.8-2.371l14.544-19.019c.2-.273.352-.476.507-.674q5.072-6.5,10.134-13.016c7.654-9.838,15.567-20.012,23.427-29.966,12.969-16.424,18.2-34.774,15.545-54.542a66.544,66.544,0,0,0-19.655-39.45c-16.382-16.131-36.188-22.822-58.868-19.883a66.287,66.287,0,0,0-44.391,24.9c-14.417,17.862-18.979,38.51-13.555,61.371,2.532,10.673,7.939,20.538,17.533,31.984.689.823,1.141,1.208,3.128.308.4-.213,1.312-.687.586-2.422a10.824,10.824,0,0,0-1.616-2.419c-.189-.236-.376-.47-.56-.708l-.891-1.153a81.409,81.409,0,0,1-8.229-12.094,65.324,65.324,0,0,1-6.879-41.077,64.086,64.086,0,0,1,18.492-36.057,63.182,63.182,0,0,1,24.05-15.127,65.157,65.157,0,0,1,29.968-3.273,63.628,63.628,0,0,1,26.375,9.412,65.093,65.093,0,0,1,27.092,33.892,63.405,63.405,0,0,1,3.424,26.775,70.476,70.476,0,0,1-3.983,17.915c-2.623,7.252-6.79,13.379-12.24,20.35q-10.327,13.211-20.637,26.434l-.7.894q-12.231,15.68-24.479,31.349c-.815,1.043-1.622,2.075-2.984,2.075h-.016c-1.367-.007-2.163-1.046-2.934-2.052-3.436-4.482-6.938-8.953-10.325-13.277l-.182-.232q-3.038-3.88-6.066-7.766-1.014-1.3-2.018-2.616c-1.687-2.2-3.432-4.468-5.23-6.637a3.035,3.035,0,0,0-1.964-1.28A1.741,1.741,0,0,0-2362.156,2144.579Z" transform="translate(2403.158 -2002.548)" fill="#2d2e82"/>
      </g>
    </g>
    <g id="Groupe_259" data-name="Groupe 259" transform="translate(25.816 39.053)">
      <path id="Tracé_678" data-name="Tracé 678" d="M-2332.7,2046.5a6.625,6.625,0,0,0-2.274.615,44.544,44.544,0,0,0-26.554,52.621,44.566,44.566,0,0,0,18.371,25.791,44.676,44.676,0,0,0,30.906,7.028,44.6,44.6,0,0,0,26.876-14.17,43.455,43.455,0,0,0,11.329-28.053c.487-18.69-7.9-32.8-24.926-41.927-1.983-1.063-3.131-.754-4.29,1.2-.18,2.088.1,2.515,2,3.492a37.318,37.318,0,0,1,7.159,4.631c12.306,10.362,17.033,23.4,14.052,38.764a38.252,38.252,0,0,1-15.729,24.075,39.644,39.644,0,0,1-28.789,6.724c-17.223-2.584-31.712-17.925-32.988-34.924-1.362-18.171,7.838-33.287,24.612-40.437,2.316-.988,2.605-1.306,2.593-3.615C-2331.2,2047.05-2331.79,2046.5-2332.7,2046.5Z" transform="translate(2363.651 -2045.845)" fill="#2d2e82"/>
      <path id="Tracé_679" data-name="Tracé 679" d="M-2318.779,2133.3a45.21,45.21,0,0,1-25.083-7.565,45.223,45.223,0,0,1-18.644-26.17,45.2,45.2,0,0,1,26.947-53.4,7.2,7.2,0,0,1,2.518-.663c1.243,0,2.006.775,2.9,2.113l.11.164v.2c.015,2.671-.553,3.185-2.993,4.225-16.5,7.034-25.553,21.905-24.212,39.781,1.254,16.706,15.5,31.782,32.428,34.322a38.972,38.972,0,0,0,28.313-6.611,37.6,37.6,0,0,0,15.46-23.661c2.932-15.108-1.72-27.938-13.829-38.134a36.728,36.728,0,0,0-7.036-4.549c-2.163-1.111-2.559-1.807-2.358-4.135l.013-.15.076-.13c1.328-2.244,2.875-2.676,5.168-1.45,17.264,9.258,25.767,23.565,25.273,42.525a44.111,44.111,0,0,1-11.5,28.479,45.256,45.256,0,0,1-27.274,14.378A45.829,45.829,0,0,1-2318.779,2133.3Zm-14.261-86.481a6.049,6.049,0,0,0-2.029.569,43.88,43.88,0,0,0-26.16,51.84,43.9,43.9,0,0,0,18.1,25.41,44.017,44.017,0,0,0,30.451,6.924A43.941,43.941,0,0,0-2286.2,2117.6a42.792,42.792,0,0,0,11.157-27.626c.48-18.421-7.79-32.326-24.578-41.329-1.63-.871-2.4-.692-3.334.833-.134,1.651.015,1.851,1.66,2.7a37.973,37.973,0,0,1,7.283,4.715c12.5,10.526,17.3,23.78,14.274,39.392a38.907,38.907,0,0,1-16,24.49,40.3,40.3,0,0,1-29.267,6.836c-17.512-2.627-32.248-18.232-33.546-35.527-1.385-18.465,7.965-33.826,25.01-41.091,2.048-.873,2.2-1.009,2.193-2.805C-2332.136,2047.039-2332.543,2046.823-2333.04,2046.823Z" transform="translate(2363.992 -2045.504)" fill="#2d2e82"/>
    </g>
    <g id="Groupe_260" data-name="Groupe 260" transform="translate(67.047 35.874)">
      <path id="Tracé_680" data-name="Tracé 680" d="M-2293.133,2044.756c-1.027,2.988-2.5,4.021-5.021,3.584-2.042-.354-2.857-1.787-3.286-3.594.56-2.8,1.7-3.973,3.948-4.061C-2295.141,2040.594-2293.925,2041.73-2293.133,2044.756Z" transform="translate(2301.44 -2040.681)" fill="#2d2e82"/>
    </g>
  </g>
  <g id="Groupe_262" data-name="Groupe 262" transform="translate(165.557 333.288)">
    <path id="Tracé_681" data-name="Tracé 681" d="M-2367.155,2491.892" transform="translate(2367.155 -2491.892)" fill="#fff"/>
  </g>
  <g id="Groupe_263" data-name="Groupe 263" transform="translate(150.615 350.394)">
    <path id="Tracé_682" data-name="Tracé 682" d="M-2389.824,2517.843" transform="translate(2389.824 -2517.843)" fill="#ffd07d"/>
  </g>
</svg>
